<!-- icon666.com - MILLIONS vector ICONS FREE --><svg version="1.1" id="Capa_1" xmlns="http://www.w3.org/2000/svg" xmlns:xlink="http://www.w3.org/1999/xlink" x="0px" y="0px" viewBox="0 0 512.009 512.009" style="enable-background:new 0 0 512.009 512.009;" xml:space="preserve"><g><g><path d="M480.26,94.707c-26.713-28.755-60.527-43.602-97.659-42.307c-50.862,1.456-96.922,30.663-127.319,61.521 c-30.405-30.858-76.457-60.065-127.328-61.521c-37.186-1.278-70.946,13.57-97.659,42.307 C4.612,122.352-5.213,161.207,2.633,204.134c16.747,91.669,106.88,184.18,247.28,253.839c2.343,1.154,4.828,1.713,7.269,1.713 c6.026,0,11.83-3.346,14.679-9.106c4.029-8.103,0.719-17.936-7.393-21.956C135.356,364.565,49.519,278.444,34.866,198.232 c-5.937-32.5,0.958-61.343,19.436-81.223c20.386-21.948,44.818-32.624,72.712-31.861c39.2,1.127,84.595,26.083,115.64,63.597 c6.23,7.526,19.019,7.526,25.249,0c31.044-37.514,76.43-62.47,115.64-63.597c27.778-0.816,52.317,9.913,72.703,31.861 c18.859,20.288,26.483,49.202,21.468,81.4c-11.147,71.576-79.483,147.527-187.482,208.355c-7.881,4.437-10.668,14.431-6.23,22.32 c4.446,7.881,14.431,10.659,22.32,6.23c116.793-65.789,191.067-150.305,203.776-231.856 C516.692,161.127,506.095,122.512,480.26,94.707z"></path></g></g></svg>