<!-- icon666.com - MILLIONS vector ICONS FREE --><svg id="Layer_1" enable-background="new 0 0 32 32" viewBox="0 0 32 32" xmlns="http://www.w3.org/2000/svg"><g><g><path d="m26 17h-20c-.552 0-1-.448-1-1s.448-1 1-1h20c.552 0 1 .448 1 1s-.448 1-1 1z" fill="rgb(0,0,0)"></path></g><g><path d="m13.221 24.072c-.252 0-.505-.095-.7-.286l-7.221-7.072c-.395-.386-.401-1.02-.015-1.414.388-.394 1.02-.4 1.414-.015l7.222 7.072c.395.386.401 1.02.015 1.414-.196.201-.456.301-.715.301z" fill="rgb(0,0,0)"></path></g><g><path d="m6 17c-.259 0-.519-.1-.714-.3-.387-.395-.38-1.028.015-1.414l7.222-7.072c.394-.387 1.027-.381 1.414.015.387.395.38 1.028-.015 1.414l-7.222 7.072c-.196.19-.448.285-.7.285z" fill="rgb(0,0,0)"></path></g></g></svg>